<svg xmlns="http://www.w3.org/2000/svg" width="24.551" height="20.817" viewBox="0 0 24.551 20.817">
  <g id="_3d-view" data-name="3d-view" transform="translate(0 -38.939)">
    <path id="Path_284" data-name="Path 284" d="M293.335,233.886v1.583c1.549.774,2.449,1.732,2.449,2.683,0,2.179-4.383,3.89-8.72,4.251a.719.719,0,0,0,.118,1.433c3.775-.311,10.04-1.94,10.04-5.684C297.223,236.107,295.222,234.7,293.335,233.886Z" transform="translate(-272.672 -185.599)" fill="#fff"/>
    <path id="Path_285" data-name="Path 285" d="M7.951,239.96a.72.72,0,0,0-1.215.351l-.318,1.455c-4.76-1.281-7.046-4.037-2.522-6.3v-1.583c-5.936,2.561-5,7.37,2.215,9.287l-.286,1.308a.72.72,0,0,0,.97.821l3.6-1.438a.719.719,0,0,0,.246-1.172Z" transform="translate(0 -185.599)" fill="#fff"/>
    <path id="Path_286" data-name="Path 286" d="M132.773,39.032a.719.719,0,0,0-.714,0L126.23,42.4l6.226,3.595,6.228-3.613Z" transform="translate(-120.177 0)" fill="#fff"/>
    <path id="Path_287" data-name="Path 287" d="M111.235,143.826a.719.719,0,0,0,.359.623l5.867,3.388v-7.145l-6.227-3.6v6.73Z" transform="translate(-105.901 -93.451)" fill="#fff"/>
    <path id="Path_288" data-name="Path 288" d="M277.311,143.473v-6.748l-6.227,3.612v7.146l5.867-3.388A.719.719,0,0,0,277.311,143.473Z" transform="translate(-258.085 -93.097)" fill="#fff"/>
  </g>
</svg>
