<svg xmlns="http://www.w3.org/2000/svg" width="24.046" height="23.986" viewBox="0 0 24.046 23.986">
  <g id="_3d" data-name="3d" transform="translate(0 -0.638)">
    <g id="Group_17" data-name="Group 17" transform="translate(0 4.788)">
      <g id="Group_16" data-name="Group 16">
        <path id="Path_289" data-name="Path 289" d="M15.891,89H3.945A3.949,3.949,0,0,0,0,92.947v11.947a3.949,3.949,0,0,0,3.945,3.945H15.891a3.949,3.949,0,0,0,3.945-3.945V92.947A3.949,3.949,0,0,0,15.891,89ZM9.4,100.7a2.363,2.363,0,0,1-.771,1.949,3.093,3.093,0,0,1-2.013.626,2.769,2.769,0,0,1-1.989-.65,1.981,1.981,0,0,1-.679-1.462.561.561,0,0,1,.162-.464.922.922,0,0,1,.557-.128,1.093,1.093,0,0,1,.615.122.482.482,0,0,1,.162.412.716.716,0,0,0,.325.621,1.519,1.519,0,0,0,.882.226,1.3,1.3,0,0,0,.945-.3,1.313,1.313,0,0,0,.3-.957v-.22q0-1.1-1.276-1.1-.441,0-.441-.592t.449-.592a1.209,1.209,0,0,0,.783-.225,1.142,1.142,0,0,0,.276-.906.9.9,0,0,0-1.021-1.015q-1.033,0-1.032.773,0,.577-.719.577a1.011,1.011,0,0,1-.632-.133.691.691,0,0,1-.145-.513,1.85,1.85,0,0,1,.128-.67,2.194,2.194,0,0,1,.4-.646,1.936,1.936,0,0,1,.795-.512,3.426,3.426,0,0,1,1.218-.2q2.459,0,2.459,2.084A2.829,2.829,0,0,1,8.9,98.02a1.376,1.376,0,0,1-.673.711,1.73,1.73,0,0,1,1.18,1.752v.22Zm6.5-.151a2.523,2.523,0,0,1-.742,2.018,2.939,2.939,0,0,1-1.984.638H11.119a.771.771,0,0,1-.476-.139.4.4,0,0,1-.186-.325V95.192a.4.4,0,0,1,.186-.325.771.771,0,0,1,.476-.139h2.053a2.94,2.94,0,0,1,1.984.638,2.523,2.523,0,0,1,.742,2.018Z" transform="translate(0 -89.002)" fill="#fff"/>
      </g>
    </g>
    <g id="Group_19" data-name="Group 19" transform="translate(11.156 11.837)">
      <g id="Group_18" data-name="Group 18" transform="translate(-7.729 -1.725)">
        <path id="Path_290" data-name="Path 290" d="M261.523,239.09h-6.737v9.489h6.737q6.8,0,6.8-2.169v-5.15Q268.325,239.09,261.523,239.09Z" transform="translate(-254.786 -239.09)" fill="#fff"/>
      </g>
    </g>
    <g id="Group_21" data-name="Group 21" transform="translate(6.635 0.638)">
      <g id="Group_20" data-name="Group 20">
        <path id="Path_291" data-name="Path 291" d="M151.661.638h-9.672a.7.7,0,0,0,0,1.408h9.672a5.633,5.633,0,0,1,5.627,5.627v9.672a.7.7,0,1,0,1.408,0V7.672A7.042,7.042,0,0,0,151.661.638Z" transform="translate(-141.285 -0.638)" fill="#fff"/>
      </g>
    </g>
  </g>
</svg>
