<svg id="Iconly_Light-outline_Bag_2" data-name="Iconly/Light-outline/Bag 2" xmlns="http://www.w3.org/2000/svg" width="24" height="24" viewBox="0 0 24 24">
  <g id="Bag_2" data-name="Bag 2" transform="translate(2.25 1.75)">
    <path id="Bag_2-2" data-name="Bag 2" d="M5.008,20A5.012,5.012,0,0,1,0,15V9.48a5.012,5.012,0,0,1,5.008-5h.2a4.531,4.531,0,0,1,9.056-.165l0,.165h.22a5.012,5.012,0,0,1,5.009,5V15a5.012,5.012,0,0,1-5.009,5ZM1.5,9.48V15a3.51,3.51,0,0,0,3.507,3.5h9.484A3.511,3.511,0,0,0,18,15V9.48a3.51,3.51,0,0,0-3.508-3.5h-.219v1.58a.75.75,0,0,1-1.493.1l-.007-.1V5.975H6.711v1.58a.751.751,0,0,1-1.494.1l-.006-.1V5.975h-.2A3.509,3.509,0,0,0,1.5,9.48Zm11.272-5a3.031,3.031,0,0,0-6.056-.146l0,.146Z" fill="#f45f5b"/>
  </g>
</svg>
