<svg id="calendar" xmlns="http://www.w3.org/2000/svg" width="19.235" height="19.235" viewBox="0 0 19.235 19.235">
  <g id="Group_31" data-name="Group 31">
    <g id="Group_30" data-name="Group 30">
      <path id="Path_294" data-name="Path 294" d="M279,280.268a1.5,1.5,0,0,0,1.5,1.5h1.766a1.5,1.5,0,0,0,1.5-1.5V278.5a1.5,1.5,0,0,0-1.5-1.5H280.5a1.5,1.5,0,0,0-1.5,1.5Zm1.5-1.766h1.766v1.766H280.5Z" transform="translate(-268.519 -266.594)" fill="#f36c58"/>
      <circle id="Ellipse_49" data-name="Ellipse 49" cx="0.5" cy="0.5" r="0.5" transform="translate(14.235 7.235)" fill="#f36c58"/>
      <ellipse id="Ellipse_50" data-name="Ellipse 50" cx="1" cy="0.5" rx="1" ry="0.5" transform="translate(10.235 7.235)" fill="#f36c58"/>
      <path id="Path_295" data-name="Path 295" d="M18.483,13.224a.751.751,0,0,0,.751-.751V4.508A3.009,3.009,0,0,0,16.229,1.5h-.977V.751a.751.751,0,0,0-1.5,0V1.5H10.331V.751a.751.751,0,1,0-1.5,0V1.5H5.447V.751a.751.751,0,1,0-1.5,0V1.5H3.005A3.009,3.009,0,0,0,0,4.508V16.229a3.009,3.009,0,0,0,3.005,3.005H16.229a3.009,3.009,0,0,0,3.005-3.005.751.751,0,0,0-1.5,0,1.5,1.5,0,0,1-1.5,1.5H3.005a1.5,1.5,0,0,1-1.5-1.5V4.508a1.5,1.5,0,0,1,1.5-1.5h.939v.751a.751.751,0,1,0,1.5,0V3.005H8.828v.751a.751.751,0,1,0,1.5,0V3.005H13.75v.751a.751.751,0,0,0,1.5,0V3.005h.977a1.5,1.5,0,0,1,1.5,1.5v7.964A.751.751,0,0,0,18.483,13.224Z" fill="#f36c58"/>
      <circle id="Ellipse_51" data-name="Ellipse 51" cx="0.5" cy="0.5" r="0.5" transform="translate(4.235 14.235)" fill="#f36c58"/>
      <circle id="Ellipse_52" data-name="Ellipse 52" cx="0.5" cy="0.5" r="0.5" transform="translate(4.235 7.235)" fill="#f36c58"/>
      <ellipse id="Ellipse_53" data-name="Ellipse 53" cx="0.5" cy="1" rx="0.5" ry="1" transform="translate(4.235 10.235)" fill="#f36c58"/>
      <ellipse id="Ellipse_54" data-name="Ellipse 54" cx="0.5" cy="1" rx="0.5" ry="1" transform="translate(7.235 10.235)" fill="#f36c58"/>
      <circle id="Ellipse_55" data-name="Ellipse 55" cx="0.5" cy="0.5" r="0.5" transform="translate(7.235 7.235)" fill="#f36c58"/>
      <circle id="Ellipse_56" data-name="Ellipse 56" cx="0.5" cy="0.5" r="0.5" transform="translate(7.235 14.235)" fill="#f36c58"/>
    </g>
  </g>
</svg>
