<svg xmlns="http://www.w3.org/2000/svg" width="21.006" height="21" viewBox="0 0 21.006 21">
  <g id="Iconly_Light-outline_Call" data-name="Iconly/Light-outline/Call" transform="translate(0.504 0.5)">
    <g id="Call" transform="translate(0)">
      <path id="Call-2" data-name="Call" d="M15.42,20h0a5.463,5.463,0,0,1-2.28-.57,25.6,25.6,0,0,1-7.227-5.339A24.623,24.623,0,0,1,.586,6.884l-.1-.239C-.2,5.027-.158,3.688.592,2.668,1.249,1.58,3.058,0,4.4,0l.075,0L4.5,0A2.247,2.247,0,0,1,5.894.713,15.183,15.183,0,0,1,8.505,4.346a2.426,2.426,0,0,1-.461,1.911l-.11.194c-.2.369-.241.529-.175.714a8.933,8.933,0,0,0,5.052,5.068.543.543,0,0,0,.189.036,1.5,1.5,0,0,0,.685-.275l.248-.141a2.51,2.51,0,0,1,1.261-.405,2.257,2.257,0,0,1,.462.052,15.171,15.171,0,0,1,3.63,2.613A2.246,2.246,0,0,1,20,15.54c.046,1.317-1.556,3.238-2.618,3.842A3.3,3.3,0,0,1,15.42,20ZM4.38,1.462h0l.013,0-.088,0a5.366,5.366,0,0,0-2.5,2.01l-.078.116a2.864,2.864,0,0,0,.2,2.71l.1.244A24.5,24.5,0,0,0,7.09,13.194a23.976,23.976,0,0,0,6.639,4.9l.212.095a3.745,3.745,0,0,0,1.451.344,2.006,2.006,0,0,0,1.2-.377l.05-.032a7.6,7.6,0,0,0,1.078-1.027,2.852,2.852,0,0,0,.819-1.468.93.93,0,0,0-.3-.492,19.638,19.638,0,0,0-2.882-2.2.6.6,0,0,0-.125-.014,1.663,1.663,0,0,0-.759.31l-.246.138a2.508,2.508,0,0,1-1.207.375,2.14,2.14,0,0,1-.734-.143A10.409,10.409,0,0,1,6.4,7.69a2.232,2.232,0,0,1,.346-2.1l.112-.2c.211-.382.26-.549.22-.746a19.731,19.731,0,0,0-2.2-2.885A.934.934,0,0,0,4.38,1.462Z" transform="translate(0)" fill="#f45f5b" stroke="rgba(0,0,0,0)" stroke-width="1"/>
    </g>
  </g>
</svg>
