<svg id="gas-pump" xmlns="http://www.w3.org/2000/svg" width="15.838" height="17.219" viewBox="0 0 15.838 17.219">
  <g id="Group_12" data-name="Group 12" transform="translate(9.327 1.434)">
    <path id="Path_273" data-name="Path 273" d="M135.877,33.188a2.181,2.181,0,0,1-1.665-.606c-.724-.773-.638-2.073-.547-3.448.029-.445.06-.9.06-1.328,0-3.946-1.35-3.946-1.794-3.946a.359.359,0,1,1,0-.717c2.511,0,2.511,3.51,2.511,4.664,0,.448-.03.914-.061,1.375-.08,1.215-.156,2.364.354,2.91a1.489,1.489,0,0,0,1.141.379.963.963,0,0,0,.778-.308c.631-.733.339-2.682.126-4.105a12.911,12.911,0,0,1-.187-1.686V24.219a.359.359,0,0,1,.143-.287c.7-.521.646-.933.6-1.262a1.862,1.862,0,0,1-.022-.244,5.831,5.831,0,0,0-4.027-2.879.359.359,0,0,1,.161-.7c3.161.728,4.583,3.061,4.583,3.579a1.135,1.135,0,0,0,.016.144,1.775,1.775,0,0,1-.733,1.825v1.978a12.865,12.865,0,0,0,.179,1.578c.246,1.65.553,3.7-.293,4.679A1.66,1.66,0,0,1,135.877,33.188Z" transform="translate(-131.572 -18.838)" fill="#070908"/>
    <path id="Path_274" data-name="Path 274" d="M180.866,42.054a.359.359,0,0,1-.254-.1c-2-2-1.76-3.052-.717-4.095a.359.359,0,0,1,.507.507c-.608.608-1.181,1.181.717,3.08a.359.359,0,0,1-.254.613Z" transform="translate(-175.485 -36.314)" fill="#070908"/>
  </g>
  <path id="Path_275" data-name="Path 275" d="M26.031,0h-5.74A1.794,1.794,0,0,0,18.5,1.794V15.426a.359.359,0,0,0,.359.359h8.61a.359.359,0,0,0,.359-.359V1.794A1.794,1.794,0,0,0,26.031,0Z" transform="translate(-17.78)" fill="#f36c58"/>
  <path id="Path_276" data-name="Path 276" d="M37.7,18.846h5.74a.359.359,0,0,1,.359.359v4.3a.359.359,0,0,1-.359.359H37.7a.359.359,0,0,1-.359-.359V19.2A.359.359,0,0,1,37.7,18.846Z" transform="translate(-35.191 -17.411)" fill="#fff"/>
  <path id="Path_277" data-name="Path 277" d="M18.761,197.88h-8.61a1.076,1.076,0,0,0-1.076,1.076v.717a.359.359,0,0,0,.359.359H19.478a.359.359,0,0,0,.359-.359v-.717A1.076,1.076,0,0,0,18.761,197.88Z" transform="translate(-9.075 -182.813)" fill="#070908"/>
</svg>
