<svg xmlns="http://www.w3.org/2000/svg" width="15.163" height="15.163" viewBox="0 0 15.163 15.163">
  <path id="manual-transmission" d="M8.233,11.285V8.174h3.761A1.779,1.779,0,0,0,13.771,6.4V3.878a1.984,1.984,0,1,0-1.185,0V6.4a.593.593,0,0,1-.592.592H8.233V3.878a1.984,1.984,0,1,0-1.185,0V6.989H3.169A.593.593,0,0,1,2.577,6.4V3.878a1.984,1.984,0,1,0-1.185,0V6.4a1.77,1.77,0,0,0,.454,1.185,1.77,1.77,0,0,0-.454,1.185v2.519a1.984,1.984,0,1,0,1.185,0V8.766a.593.593,0,0,1,.592-.592h3.88v3.111a1.984,1.984,0,1,0,1.185,0Zm4.946-10.1a.8.8,0,1,1-.8.8A.8.8,0,0,1,13.179,1.185Zm-5.538,0a.8.8,0,1,1-.8.8A.8.8,0,0,1,7.641,1.185Zm-5.657,0a.8.8,0,1,1-.8.8A.8.8,0,0,1,1.984,1.185Zm0,12.794a.8.8,0,1,1,.8-.8A.8.8,0,0,1,1.984,13.979Zm5.657,0a.8.8,0,1,1,.8-.8A.8.8,0,0,1,7.641,13.979Zm7.522-2.266a1.646,1.646,0,0,0-1.644-1.644H11.55v5.094h1.185V13.357h.158l.92,1.807h1.329l-.985-1.935A1.646,1.646,0,0,0,15.163,11.713Zm-2.429-.459h.785a.459.459,0,1,1,0,.918h-.785Z" fill="#f36c58"/>
</svg>
