<svg id="Iconly_Light-outline_Home" data-name="Iconly/Light-outline/Home" xmlns="http://www.w3.org/2000/svg" width="20" height="20" viewBox="0 0 20 20">
  <g id="Home">
    <path id="Home-2" data-name="Home" d="M16.085,20H13.99a1.879,1.879,0,0,1-1.884-1.689l-.01-.14v-2.86a.646.646,0,0,0-.568-.621l-.095-.01H8.62a.657.657,0,0,0-.652.54l-.01.091v2.851a1.008,1.008,0,0,1-.021.179l-.01.021-.012.069a1.872,1.872,0,0,1-1.777,1.561L6,20H4.115A4.032,4.032,0,0,1,0,16.3V7.99A2.916,2.916,0,0,1,1.053,5.8L7.61.789A3.986,3.986,0,0,1,12.2.668l.17.121L18.778,5.66A2.973,2.973,0,0,1,19.99,7.789l.01.2V16.1A4.011,4.011,0,0,1,16.085,20ZM8.463,13.289h2.969a2.1,2.1,0,0,1,2.126,1.871v3.01a.442.442,0,0,0,.369.429h1.957a2.586,2.586,0,0,0,2.641-2.34l.012-.159V8a1.585,1.585,0,0,0-.527-1.13l-.136-.111-6.421-4.88a2.424,2.424,0,0,0-1.464-.484,2.466,2.466,0,0,0-1.315.373l-.159.111-6.4,4.9a1.538,1.538,0,0,0-.64,1.059L1.462,8v8.1a2.57,2.57,0,0,0,2.486,2.5H6a.445.445,0,0,0,.462-.358l.022-.18L6.5,18.01v-2.7A2.056,2.056,0,0,1,8.463,13.289Z" fill="#f45f5b"/>
  </g>
</svg>
