<svg xmlns="http://www.w3.org/2000/svg" width="24" height="21" viewBox="0 0 24 21">
  <g id="rotation" transform="translate(0 -1)">
    <path id="Path_278" data-name="Path 278" d="M12,7a.507.507,0,0,1-.18-.033l-6.5-2.5a.5.5,0,0,1,0-.934l6.5-2.5a.5.5,0,0,1,.359,0l6.5,2.5a.5.5,0,0,1,0,.934l-6.5,2.5A.507.507,0,0,1,12,7ZM6.893,4,12,5.964,17.107,4,12,2.036Z" fill="#fff"/>
    <path id="Path_279" data-name="Path 279" d="M12,15a.507.507,0,0,1-.18-.033l-6.5-2.5A.5.5,0,0,1,5,12V4A.5.5,0,0,1,6,4v7.657l6,2.308,6-2.308V4a.5.5,0,0,1,1,0v8a.5.5,0,0,1-.32.467l-6.5,2.5A.507.507,0,0,1,12,15Z" fill="#fff"/>
    <path id="Path_280" data-name="Path 280" d="M12,15a.5.5,0,0,1-.5-.5v-8a.5.5,0,0,1,1,0v8A.5.5,0,0,1,12,15Z" fill="#fff"/>
    <path id="Path_281" data-name="Path 281" d="M10.5,22a.5.5,0,0,1-.3-.9L11.666,20,10.2,18.9a.5.5,0,0,1,.6-.8l2,1.5a.5.5,0,0,1,0,.8l-2,1.5a.5.5,0,0,1-.3.1Z" fill="#fff"/>
    <path id="Path_282" data-name="Path 282" d="M12,20.5a40.063,40.063,0,0,1-4.254-.213C5.932,20.1,0,19.326,0,17c0-.949.979-1.742,2.908-2.356a.513.513,0,0,1,.657.477.5.5,0,0,1-.4.49C1.569,16.126,1,16.681,1,17c0,.666,2.125,1.816,6.85,2.292A38.923,38.923,0,0,0,12,19.5a.5.5,0,0,1,0,1Z" fill="#fff"/>
    <path id="Path_283" data-name="Path 283" d="M15.49,20.35a.5.5,0,0,1-.04-1C20.6,18.931,23,17.7,23,17c0-.322-.579-.883-2.212-1.4a.5.5,0,1,1,.3-.953C23.021,15.258,24,16.051,24,17c0,2.465-6.482,3.186-8.469,3.349H15.49Z" fill="#fff"/>
  </g>
</svg>
