<svg id="ventilator" xmlns="http://www.w3.org/2000/svg" width="22.389" height="22.388" viewBox="0 0 22.389 22.388">
  <g id="Group_32" data-name="Group 32">
    <path id="Path_296" data-name="Path 296" d="M282.942,199.277a1.083,1.083,0,1,0-1.083,1.083A1.085,1.085,0,0,0,282.942,199.277Zm-1.444,0a.361.361,0,1,1,.361.361A.361.361,0,0,1,281.5,199.277Z" transform="translate(-268.497 -189.527)" fill="#f36c58"/>
    <path id="Path_297" data-name="Path 297" d="M171.3,82.581a6.139,6.139,0,1,0,6.139,6.139A6.146,6.146,0,0,0,171.3,82.581Zm-5.417,6.139a5.4,5.4,0,0,1,.1-.994,5.3,5.3,0,0,0,2.484.62c.114,0,.228-.007.342-.014a2.351,2.351,0,0,0,.01.845,5.974,5.974,0,0,1-2.9.092A5.436,5.436,0,0,1,165.883,88.72Zm3.779-1.922a5.981,5.981,0,0,1-1.531-2.462,5.4,5.4,0,0,1,1.371-.719,5.3,5.3,0,0,0,.886,2.749A2.516,2.516,0,0,0,169.663,86.8Zm.053,3.889a2.516,2.516,0,0,0,.738.412,5.99,5.99,0,0,1-1.369,2.559,5.417,5.417,0,0,1-1.306-.83A5.3,5.3,0,0,0,169.716,90.687Zm-.222-1.967a1.806,1.806,0,1,1,1.806,1.806,1.808,1.808,0,0,1-1.806-1.806Zm3.389-1.967a2.516,2.516,0,0,0-.738-.412,5.991,5.991,0,0,1,1.369-2.559,5.416,5.416,0,0,1,1.306.83A5.3,5.3,0,0,0,172.884,86.753Zm.053,3.889a5.981,5.981,0,0,1,1.531,2.462,5.4,5.4,0,0,1-1.371.719,5.3,5.3,0,0,0-.886-2.749A2.515,2.515,0,0,0,172.937,90.642Zm.847-2.379a5.982,5.982,0,0,1,2.9-.092,5.3,5.3,0,0,1-.068,1.546,5.3,5.3,0,0,0-2.826-.608,2.5,2.5,0,0,0,.033-.388A2.546,2.546,0,0,0,173.784,88.263Zm2.764-.857a6.706,6.706,0,0,0-3,.173,2.5,2.5,0,0,0-.14-.243,4.577,4.577,0,0,1,1.929-2.2l.005,0A5.4,5.4,0,0,1,176.548,87.406Zm-3.761-3.89a6.7,6.7,0,0,0-1.35,2.683c-.046,0-.092-.007-.138-.007s-.094,0-.141.007a4.579,4.579,0,0,1-.942-2.772v-.014a5.356,5.356,0,0,1,2.571.1Zm-5.25,1.315a6.712,6.712,0,0,0,1.647,2.508,2.575,2.575,0,0,0-.139.243,4.58,4.58,0,0,1-2.871-.57l-.009-.005A5.419,5.419,0,0,1,167.538,84.831Zm-1.487,5.2a6.542,6.542,0,0,0,3-.174,2.464,2.464,0,0,0,.14.244,4.577,4.577,0,0,1-1.929,2.2l-.005,0A5.4,5.4,0,0,1,166.051,90.033Zm3.761,3.891a6.7,6.7,0,0,0,1.35-2.683c.046,0,.092.007.138.007s.094,0,.141-.007a4.579,4.579,0,0,1,.942,2.772v.014a5.356,5.356,0,0,1-2.571-.1Zm5.25-1.315a6.711,6.711,0,0,0-1.647-2.508,2.583,2.583,0,0,0,.139-.243,4.583,4.583,0,0,1,2.871.57l.009.005A5.42,5.42,0,0,1,175.062,92.609Z" transform="translate(-157.939 -78.97)" fill="#f36c58"/>
    <path id="Path_298" data-name="Path 298" d="M18.778,19.5v1.083a1.083,1.083,0,1,1-2.167,0V18.777a.723.723,0,0,0,.722-.722V17.042A8.3,8.3,0,0,0,20.854,6.17l1.339-2.141a1.308,1.308,0,0,0,.2-.7,1.29,1.29,0,0,0-.464-.992L20.351,1.021a1.323,1.323,0,0,0-1.74.079l-1.33,1.33a8.252,8.252,0,0,0-3.92-.986H5.678A2.2,2.2,0,0,0,3.611,0a.723.723,0,0,0-.722.722v.8L.547,2.109A.721.721,0,0,0,0,2.81V5.135a.721.721,0,0,0,.547.7l2.341.585v.8H.722A.723.723,0,0,0,0,7.944v2.167a.723.723,0,0,0,.722.722h.722V13.44l-.9.224a.721.721,0,0,0-.547.7V16.69a.721.721,0,0,0,.547.7l2.341.585V19.5a.723.723,0,0,0,.722.722H9.389a.723.723,0,0,0,.722-.722V18.055h3.25a8.289,8.289,0,0,0,1.806-.2v.2a.723.723,0,0,0,.722.722v1.806a1.806,1.806,0,0,0,3.611,0V19.5a.723.723,0,0,1,.722-.722h2.167v-.722H20.222A1.446,1.446,0,0,0,18.778,19.5ZM.722,5.135V2.809l2.167-.542V5.676Zm0,4.976V7.944H2.889v.722H1.444v.722H2.889v3.69l-.722.181V10.111Zm0,6.579V14.365l2.167-.542v3.408Zm18.4-15.079a.583.583,0,0,1,.767-.035l1.573,1.311a.578.578,0,0,1,.205.457.571.571,0,0,1-.086.3L20.458,5.44a8.3,8.3,0,0,0-.573-.82,1.082,1.082,0,1,0-1.395-1.4q-.276-.218-.571-.413ZM19.5,3.972a.361.361,0,1,1,.361-.361A.361.361,0,0,1,19.5,3.972ZM9.389,19.5H3.611V.722A1.487,1.487,0,0,1,5.056,1.85v16.2H9.389ZM5.778,17.333V2.167h7.583a7.583,7.583,0,1,1,0,15.166H5.778Zm10.833.059v.663h-.722v-.395C16.135,17.582,16.375,17.493,16.611,17.392Z" transform="translate(0 0)" fill="#f36c58"/>
    <circle id="Ellipse_57" data-name="Ellipse 57" cx="0.361" cy="0.361" r="0.361" transform="translate(6.5 15.889)" fill="#f36c58"/>
    <circle id="Ellipse_58" data-name="Ellipse 58" cx="0.361" cy="0.361" r="0.361" transform="translate(1.444 15.166)" fill="#f36c58"/>
    <circle id="Ellipse_59" data-name="Ellipse 59" cx="0.361" cy="0.361" r="0.361" transform="translate(6.5 2.889)" fill="#f36c58"/>
    <circle id="Ellipse_60" data-name="Ellipse 60" cx="0.361" cy="0.361" r="0.361" transform="translate(1.444 3.611)" fill="#f36c58"/>
  </g>
</svg>
